<svg xmlns="http://www.w3.org/2000/svg" xmlns:xlink="http://www.w3.org/1999/xlink" width="1990" zoomAndPan="magnify" viewBox="0 0 1440 809.999993" height="1080" preserveAspectRatio="xMidYMid meet" version="1.0"><defs><g/><clipPath id="56af393c91"><path d="M 0.640625 92 L 1 92 L 1 93 L 0.640625 93 Z M 0.640625 92 " clip-rule="nonzero"/></clipPath><clipPath id="1cde161129"><path d="M 0.640625 216 L 1 216 L 1 217 L 0.640625 217 Z M 0.640625 216 " clip-rule="nonzero"/></clipPath><clipPath id="fde27a335c"><path d="M 8 350 L 1291.121094 350 L 1291.121094 376.558594 L 8 376.558594 Z M 8 350 " clip-rule="nonzero"/></clipPath><clipPath id="d45b650450"><rect x="0" width="1292" y="0" height="377"/></clipPath></defs><g transform="matrix(1, 0, 0, 1, 68, 216)"><g clip-path="url(#d45b650450)"><g clip-path="url(#56af393c91)"><g fill="#000000" fill-opacity="1"><g transform="translate(0.652718, 92.769282)"><g/></g></g></g><g fill="#000000" fill-opacity="1"><g transform="translate(28.858303, 92.769282)"><g/></g></g><g fill="#000000" fill-opacity="1"><g transform="translate(57.067634, 92.769282)"><g><path d="M 37.609375 -86.78125 C 42.222656 -86.78125 46.734375 -86.109375 51.140625 -84.765625 C 55.546875 -83.421875 58.816406 -82.097656 60.953125 -80.796875 L 64.046875 -78.71875 L 56.203125 -63.234375 C 55.578125 -63.640625 54.710938 -64.171875 53.609375 -64.828125 C 52.515625 -65.484375 50.453125 -66.359375 47.421875 -67.453125 C 44.390625 -68.554688 41.566406 -69.109375 38.953125 -69.109375 C 35.710938 -69.109375 33.210938 -68.421875 31.453125 -67.046875 C 29.703125 -65.671875 28.828125 -63.8125 28.828125 -61.46875 C 28.828125 -60.300781 29.238281 -59.21875 30.0625 -58.21875 C 30.882812 -57.21875 32.296875 -56.148438 34.296875 -55.015625 C 36.296875 -53.878906 38.050781 -52.96875 39.5625 -52.28125 C 41.082031 -51.59375 43.425781 -50.554688 46.59375 -49.171875 C 52.101562 -46.835938 56.800781 -43.65625 60.6875 -39.625 C 64.582031 -35.59375 66.53125 -31.03125 66.53125 -25.9375 C 66.53125 -21.039062 65.648438 -16.765625 63.890625 -13.109375 C 62.140625 -9.460938 59.726562 -6.609375 56.65625 -4.546875 C 53.59375 -2.484375 50.203125 -0.953125 46.484375 0.046875 C 42.765625 1.046875 38.738281 1.546875 34.40625 1.546875 C 30.6875 1.546875 27.035156 1.164062 23.453125 0.40625 C 19.867188 -0.34375 16.867188 -1.285156 14.453125 -2.421875 C 12.046875 -3.554688 9.878906 -4.675781 7.953125 -5.78125 C 6.023438 -6.882812 4.613281 -7.816406 3.71875 -8.578125 L 2.375 -9.71875 L 12.09375 -26.03125 C 12.914062 -25.34375 14.050781 -24.460938 15.5 -23.390625 C 16.945312 -22.328125 19.507812 -20.898438 23.1875 -19.109375 C 26.875 -17.316406 30.128906 -16.421875 32.953125 -16.421875 C 41.148438 -16.421875 45.25 -19.210938 45.25 -24.796875 C 45.25 -25.960938 44.957031 -27.046875 44.375 -28.046875 C 43.789062 -29.046875 42.753906 -30.046875 41.265625 -31.046875 C 39.785156 -32.046875 38.476562 -32.835938 37.34375 -33.421875 C 36.207031 -34.003906 34.347656 -34.898438 31.765625 -36.109375 C 29.179688 -37.316406 27.269531 -38.226562 26.03125 -38.84375 C 20.863281 -41.394531 16.867188 -44.582031 14.046875 -48.40625 C 11.222656 -52.226562 9.8125 -56.34375 9.8125 -60.75 C 9.8125 -68.394531 12.632812 -74.644531 18.28125 -79.5 C 23.9375 -84.351562 30.378906 -86.78125 37.609375 -86.78125 Z M 37.609375 -86.78125 "/></g></g></g><g fill="#000000" fill-opacity="1"><g transform="translate(126.496763, 92.769282)"><g><path d="M 25.625 -34.203125 L 25.625 0 L 6.203125 0 L 6.203125 -85.234375 L 25.625 -85.234375 L 25.625 -51.25 L 53.109375 -51.25 L 53.109375 -85.234375 L 72.53125 -85.234375 L 72.53125 0 L 53.109375 0 L 53.109375 -34.203125 Z M 25.625 -34.203125 "/></g></g></g><g fill="#000000" fill-opacity="1"><g transform="translate(205.224431, 92.769282)"><g><path d="M 49.484375 -85.234375 L 83.890625 0 L 63.015625 0 L 56.71875 -17.046875 L 24.28125 -17.046875 L 17.96875 0 L -2.890625 0 L 31.515625 -85.234375 Z M 50.109375 -34.09375 L 40.609375 -58.890625 L 40.390625 -58.890625 L 30.890625 -34.09375 Z M 50.109375 -34.09375 "/></g></g></g><g fill="#000000" fill-opacity="1"><g transform="translate(286.225088, 92.769282)"><g><path d="M 6.203125 -85.234375 L 36.671875 -85.234375 C 44.867188 -85.234375 51.550781 -83.046875 56.71875 -78.671875 C 61.882812 -74.296875 64.46875 -68.046875 64.46875 -59.921875 C 64.46875 -53.648438 62.898438 -48.394531 59.765625 -44.15625 C 56.628906 -39.925781 52.375 -36.953125 47 -35.234375 L 76.34375 0 L 51.65625 0 L 25.625 -33.6875 L 25.625 0 L 6.203125 0 Z M 25.625 -47.421875 L 27.890625 -47.421875 C 29.679688 -47.421875 31.195312 -47.453125 32.4375 -47.515625 C 33.675781 -47.585938 35.085938 -47.828125 36.671875 -48.234375 C 38.253906 -48.648438 39.523438 -49.238281 40.484375 -50 C 41.453125 -50.757812 42.28125 -51.863281 42.96875 -53.3125 C 43.664062 -54.757812 44.015625 -56.515625 44.015625 -58.578125 C 44.015625 -60.640625 43.664062 -62.394531 42.96875 -63.84375 C 42.28125 -65.289062 41.453125 -66.394531 40.484375 -67.15625 C 39.523438 -67.914062 38.253906 -68.5 36.671875 -68.90625 C 35.085938 -69.320312 33.675781 -69.5625 32.4375 -69.625 C 31.195312 -69.695312 29.679688 -69.734375 27.890625 -69.734375 L 25.625 -69.734375 Z M 25.625 -47.421875 "/></g></g></g><g fill="#000000" fill-opacity="1"><g transform="translate(360.200152, 92.769282)"><g><path d="M 54.96875 -85.234375 L 54.96875 -68.1875 L 25.625 -68.1875 L 25.625 -51.25 L 53.71875 -51.25 L 53.71875 -34.203125 L 25.625 -34.203125 L 25.625 -17.046875 L 54.96875 -17.046875 L 54.96875 0 L 6.203125 0 L 6.203125 -85.234375 Z M 54.96875 -85.234375 "/></g></g></g><g fill="#000000" fill-opacity="1"><g transform="translate(420.129641, 92.769282)"><g/></g></g><g fill="#000000" fill-opacity="1"><g transform="translate(448.335227, 92.769282)"><g/></g></g><g fill="#000000" fill-opacity="1"><g transform="translate(476.544554, 92.769282)"><g><path d="M 83.78125 0 L 57.03125 0 L 25.625 -36.15625 L 25.625 0 L 6.203125 0 L 6.203125 -85.234375 L 25.625 -85.234375 L 25.625 -50.421875 L 54.859375 -85.234375 L 78.421875 -85.234375 L 44.109375 -44.84375 Z M 83.78125 0 "/></g></g></g><g fill="#000000" fill-opacity="1"><g transform="translate(557.855145, 92.769282)"><g><path d="M 25.625 -52.890625 L 25.625 0 L 6.203125 0 L 6.203125 -85.234375 L 25.625 -85.234375 L 59.515625 -32.34375 L 59.71875 -32.34375 L 59.71875 -85.234375 L 79.140625 -85.234375 L 79.140625 0 L 59.71875 0 L 25.828125 -52.890625 Z M 25.625 -52.890625 "/></g></g></g><g fill="#000000" fill-opacity="1"><g transform="translate(643.195111, 92.769282)"><g><path d="M 2.375 -42.671875 C 2.375 -54.992188 6.570312 -65.425781 14.96875 -73.96875 C 23.375 -82.507812 33.503906 -86.78125 45.359375 -86.78125 C 57.273438 -86.78125 67.398438 -82.523438 75.734375 -74.015625 C 84.066406 -65.515625 88.234375 -55.066406 88.234375 -42.671875 C 88.234375 -30.203125 84.132812 -19.710938 75.9375 -11.203125 C 67.738281 -2.703125 57.546875 1.546875 45.359375 1.546875 C 32.890625 1.546875 22.609375 -2.671875 14.515625 -11.109375 C 6.421875 -19.546875 2.375 -30.066406 2.375 -42.671875 Z M 23.34375 -42.671875 C 23.34375 -38.191406 24.03125 -34.109375 25.40625 -30.421875 C 26.789062 -26.734375 29.203125 -23.613281 32.640625 -21.0625 C 36.085938 -18.519531 40.328125 -17.25 45.359375 -17.25 C 52.585938 -17.25 58.039062 -19.726562 61.71875 -24.6875 C 65.40625 -29.644531 67.25 -35.640625 67.25 -42.671875 C 67.25 -49.628906 65.375 -55.601562 61.625 -60.59375 C 57.875 -65.582031 52.453125 -68.078125 45.359375 -68.078125 C 38.328125 -68.078125 32.898438 -65.582031 29.078125 -60.59375 C 25.253906 -55.601562 23.34375 -49.628906 23.34375 -42.671875 Z M 23.34375 -42.671875 "/></g></g></g><g fill="#000000" fill-opacity="1"><g transform="translate(733.804253, 92.769282)"><g><path d="M 71.59375 0 L 57.953125 -47.828125 L 44.328125 0 L 22.734375 0 L -1.546875 -85.234375 L 20.046875 -85.234375 L 34.609375 -26.765625 L 35.125 -26.765625 L 50.625 -85.234375 L 65.296875 -85.234375 L 80.796875 -26.765625 L 81.3125 -26.765625 L 95.875 -85.234375 L 117.359375 -85.234375 L 93.078125 0 Z M 71.59375 0 "/></g></g></g><g fill="#000000" fill-opacity="1"><g transform="translate(849.622783, 92.769282)"><g><path d="M 25.625 -85.234375 L 25.625 -17.046875 L 54.96875 -17.046875 L 54.96875 0 L 6.203125 0 L 6.203125 -85.234375 Z M 25.625 -85.234375 "/></g></g></g><g fill="#000000" fill-opacity="1"><g transform="translate(907.996955, 92.769282)"><g><path d="M 54.96875 -85.234375 L 54.96875 -68.1875 L 25.625 -68.1875 L 25.625 -51.25 L 53.71875 -51.25 L 53.71875 -34.203125 L 25.625 -34.203125 L 25.625 -17.046875 L 54.96875 -17.046875 L 54.96875 0 L 6.203125 0 L 6.203125 -85.234375 Z M 54.96875 -85.234375 "/></g></g></g><g fill="#000000" fill-opacity="1"><g transform="translate(967.920918, 92.769282)"><g><path d="M 6.203125 -85.234375 L 30.890625 -85.234375 C 42.734375 -85.234375 52.859375 -81.1875 61.265625 -73.09375 C 69.671875 -65 73.875 -54.859375 73.875 -42.671875 C 73.875 -30.410156 69.6875 -20.234375 61.3125 -12.140625 C 52.945312 -4.046875 42.804688 0 30.890625 0 L 6.203125 0 Z M 25.625 -17.359375 L 28.625 -17.359375 C 35.71875 -17.359375 41.519531 -19.75 46.03125 -24.53125 C 50.539062 -29.320312 52.828125 -35.332031 52.890625 -42.5625 C 52.890625 -49.789062 50.632812 -55.816406 46.125 -60.640625 C 41.613281 -65.460938 35.78125 -67.875 28.625 -67.875 L 25.625 -67.875 Z M 25.625 -17.359375 "/></g></g></g><g fill="#000000" fill-opacity="1"><g transform="translate(1044.168949, 92.769282)"><g><path d="M 83.265625 -47.734375 L 83.265625 -29.234375 C 81.066406 -19.109375 76.242188 -11.445312 68.796875 -6.25 C 61.359375 -1.050781 53.0625 1.546875 43.90625 1.546875 C 32.40625 1.546875 22.609375 -2.753906 14.515625 -11.359375 C 6.421875 -19.972656 2.375 -30.375 2.375 -42.5625 C 2.375 -54.957031 6.332031 -65.425781 14.25 -73.96875 C 22.175781 -82.507812 32.0625 -86.78125 43.90625 -86.78125 C 57.75 -86.78125 68.703125 -81.925781 76.765625 -72.21875 L 64.046875 -58.265625 C 59.503906 -65.566406 53.171875 -69.21875 45.046875 -69.21875 C 39.054688 -69.21875 33.941406 -66.617188 29.703125 -61.421875 C 25.460938 -56.222656 23.34375 -49.9375 23.34375 -42.5625 C 23.34375 -35.332031 25.460938 -29.148438 29.703125 -24.015625 C 33.941406 -18.890625 39.054688 -16.328125 45.046875 -16.328125 C 50.003906 -16.328125 54.320312 -17.820312 58 -20.8125 C 61.6875 -23.8125 63.53125 -27.789062 63.53125 -32.75 L 43.90625 -32.75 L 43.90625 -47.734375 Z M 83.265625 -47.734375 "/></g></g></g><g fill="#000000" fill-opacity="1"><g transform="translate(1129.81886, 92.769282)"><g><path d="M 54.96875 -85.234375 L 54.96875 -68.1875 L 25.625 -68.1875 L 25.625 -51.25 L 53.71875 -51.25 L 53.71875 -34.203125 L 25.625 -34.203125 L 25.625 -17.046875 L 54.96875 -17.046875 L 54.96875 0 L 6.203125 0 L 6.203125 -85.234375 Z M 54.96875 -85.234375 "/></g></g></g><g clip-path="url(#1cde161129)"><g fill="#000000" fill-opacity="1"><g transform="translate(0.652718, 216.195195)"><g/></g></g></g><g fill="#000000" fill-opacity="1"><g transform="translate(28.858303, 216.195195)"><g/></g></g><g fill="#000000" fill-opacity="1"><g transform="translate(57.067634, 216.195195)"><g><path d="M 6.203125 -85.234375 L 32.640625 -85.234375 C 40.628906 -85.234375 47 -83.523438 51.75 -80.109375 C 56.507812 -76.703125 58.890625 -71.175781 58.890625 -63.53125 C 58.890625 -54.988281 55.34375 -48.894531 48.25 -45.25 C 60.375 -43.113281 66.4375 -35.953125 66.4375 -23.765625 C 66.4375 -16.597656 63.953125 -10.84375 58.984375 -6.5 C 54.023438 -2.164062 47.207031 0 38.53125 0 L 6.203125 0 Z M 25.625 -51.859375 L 27.171875 -51.859375 C 31.515625 -51.859375 34.75 -52.613281 36.875 -54.125 C 39.007812 -55.644531 40.078125 -58.128906 40.078125 -61.578125 C 40.078125 -67.359375 35.773438 -70.25 27.171875 -70.25 L 25.625 -70.25 Z M 25.625 -14.984375 L 31.71875 -14.984375 C 41.21875 -14.984375 45.96875 -18.148438 45.96875 -24.484375 C 45.96875 -28.273438 44.78125 -30.992188 42.40625 -32.640625 C 40.03125 -34.296875 36.46875 -35.125 31.71875 -35.125 L 25.625 -35.125 Z M 25.625 -14.984375 "/></g></g></g><g fill="#000000" fill-opacity="1"><g transform="translate(125.876851, 216.195195)"><g><path d="M 71.703125 -85.234375 L 71.703125 -30.265625 C 71.703125 -19.796875 68.875 -11.875 63.21875 -6.5 C 57.570312 -1.132812 49.304688 1.546875 38.421875 1.546875 C 27.546875 1.546875 19.285156 -1.132812 13.640625 -6.5 C 7.992188 -11.875 5.171875 -19.796875 5.171875 -30.265625 L 5.171875 -85.234375 L 24.59375 -85.234375 L 24.59375 -35.953125 C 24.59375 -29.066406 25.675781 -24.28125 27.84375 -21.59375 C 30.007812 -18.90625 33.535156 -17.5625 38.421875 -17.5625 C 43.316406 -17.5625 46.847656 -18.90625 49.015625 -21.59375 C 51.191406 -24.28125 52.28125 -29.066406 52.28125 -35.953125 L 52.28125 -85.234375 Z M 71.703125 -85.234375 "/></g></g></g><g fill="#000000" fill-opacity="1"><g transform="translate(202.744805, 216.195195)"><g><path d="M 25.625 -85.234375 L 25.625 0 L 6.203125 0 L 6.203125 -85.234375 Z M 25.625 -85.234375 "/></g></g></g><g fill="#000000" fill-opacity="1"><g transform="translate(234.56649, 216.195195)"><g><path d="M 25.625 -85.234375 L 25.625 -17.046875 L 54.96875 -17.046875 L 54.96875 0 L 6.203125 0 L 6.203125 -85.234375 Z M 25.625 -85.234375 "/></g></g></g><g fill="#000000" fill-opacity="1"><g transform="translate(292.940683, 216.195195)"><g><path d="M 6.203125 -85.234375 L 30.890625 -85.234375 C 42.734375 -85.234375 52.859375 -81.1875 61.265625 -73.09375 C 69.671875 -65 73.875 -54.859375 73.875 -42.671875 C 73.875 -30.410156 69.6875 -20.234375 61.3125 -12.140625 C 52.945312 -4.046875 42.804688 0 30.890625 0 L 6.203125 0 Z M 25.625 -17.359375 L 28.625 -17.359375 C 35.71875 -17.359375 41.519531 -19.75 46.03125 -24.53125 C 50.539062 -29.320312 52.828125 -35.332031 52.890625 -42.5625 C 52.890625 -49.789062 50.632812 -55.816406 46.125 -60.640625 C 41.613281 -65.460938 35.78125 -67.875 28.625 -67.875 L 25.625 -67.875 Z M 25.625 -17.359375 "/></g></g></g><g fill="#000000" fill-opacity="1"><g transform="translate(369.196946, 216.195195)"><g/></g></g><g fill="#000000" fill-opacity="1"><g transform="translate(397.402532, 216.195195)"><g/></g></g><g fill="#000000" fill-opacity="1"><g transform="translate(425.611866, 216.195195)"><g><path d="M 37.609375 -86.78125 C 42.222656 -86.78125 46.734375 -86.109375 51.140625 -84.765625 C 55.546875 -83.421875 58.816406 -82.097656 60.953125 -80.796875 L 64.046875 -78.71875 L 56.203125 -63.234375 C 55.578125 -63.640625 54.710938 -64.171875 53.609375 -64.828125 C 52.515625 -65.484375 50.453125 -66.359375 47.421875 -67.453125 C 44.390625 -68.554688 41.566406 -69.109375 38.953125 -69.109375 C 35.710938 -69.109375 33.210938 -68.421875 31.453125 -67.046875 C 29.703125 -65.671875 28.828125 -63.8125 28.828125 -61.46875 C 28.828125 -60.300781 29.238281 -59.21875 30.0625 -58.21875 C 30.882812 -57.21875 32.296875 -56.148438 34.296875 -55.015625 C 36.296875 -53.878906 38.050781 -52.96875 39.5625 -52.28125 C 41.082031 -51.59375 43.425781 -50.554688 46.59375 -49.171875 C 52.101562 -46.835938 56.800781 -43.65625 60.6875 -39.625 C 64.582031 -35.59375 66.53125 -31.03125 66.53125 -25.9375 C 66.53125 -21.039062 65.648438 -16.765625 63.890625 -13.109375 C 62.140625 -9.460938 59.726562 -6.609375 56.65625 -4.546875 C 53.59375 -2.484375 50.203125 -0.953125 46.484375 0.046875 C 42.765625 1.046875 38.738281 1.546875 34.40625 1.546875 C 30.6875 1.546875 27.035156 1.164062 23.453125 0.40625 C 19.867188 -0.34375 16.867188 -1.285156 14.453125 -2.421875 C 12.046875 -3.554688 9.878906 -4.675781 7.953125 -5.78125 C 6.023438 -6.882812 4.613281 -7.816406 3.71875 -8.578125 L 2.375 -9.71875 L 12.09375 -26.03125 C 12.914062 -25.34375 14.050781 -24.460938 15.5 -23.390625 C 16.945312 -22.328125 19.507812 -20.898438 23.1875 -19.109375 C 26.875 -17.316406 30.128906 -16.421875 32.953125 -16.421875 C 41.148438 -16.421875 45.25 -19.210938 45.25 -24.796875 C 45.25 -25.960938 44.957031 -27.046875 44.375 -28.046875 C 43.789062 -29.046875 42.753906 -30.046875 41.265625 -31.046875 C 39.785156 -32.046875 38.476562 -32.835938 37.34375 -33.421875 C 36.207031 -34.003906 34.347656 -34.898438 31.765625 -36.109375 C 29.179688 -37.316406 27.269531 -38.226562 26.03125 -38.84375 C 20.863281 -41.394531 16.867188 -44.582031 14.046875 -48.40625 C 11.222656 -52.226562 9.8125 -56.34375 9.8125 -60.75 C 9.8125 -68.394531 12.632812 -74.644531 18.28125 -79.5 C 23.9375 -84.351562 30.378906 -86.78125 37.609375 -86.78125 Z M 37.609375 -86.78125 "/></g></g></g><g fill="#000000" fill-opacity="1"><g transform="translate(495.040995, 216.195195)"><g><path d="M 83.78125 0 L 57.03125 0 L 25.625 -36.15625 L 25.625 0 L 6.203125 0 L 6.203125 -85.234375 L 25.625 -85.234375 L 25.625 -50.421875 L 54.859375 -85.234375 L 78.421875 -85.234375 L 44.109375 -44.84375 Z M 83.78125 0 "/></g></g></g><g fill="#000000" fill-opacity="1"><g transform="translate(576.351586, 216.195195)"><g><path d="M 25.625 -85.234375 L 25.625 0 L 6.203125 0 L 6.203125 -85.234375 Z M 25.625 -85.234375 "/></g></g></g><g fill="#000000" fill-opacity="1"><g transform="translate(608.173282, 216.195195)"><g><path d="M 25.625 -85.234375 L 25.625 -17.046875 L 54.96875 -17.046875 L 54.96875 0 L 6.203125 0 L 6.203125 -85.234375 Z M 25.625 -85.234375 "/></g></g></g><g fill="#000000" fill-opacity="1"><g transform="translate(666.547454, 216.195195)"><g><path d="M 25.625 -85.234375 L 25.625 -17.046875 L 54.96875 -17.046875 L 54.96875 0 L 6.203125 0 L 6.203125 -85.234375 Z M 25.625 -85.234375 "/></g></g></g><g fill="#000000" fill-opacity="1"><g transform="translate(724.921669, 216.195195)"><g><path d="M 37.609375 -86.78125 C 42.222656 -86.78125 46.734375 -86.109375 51.140625 -84.765625 C 55.546875 -83.421875 58.816406 -82.097656 60.953125 -80.796875 L 64.046875 -78.71875 L 56.203125 -63.234375 C 55.578125 -63.640625 54.710938 -64.171875 53.609375 -64.828125 C 52.515625 -65.484375 50.453125 -66.359375 47.421875 -67.453125 C 44.390625 -68.554688 41.566406 -69.109375 38.953125 -69.109375 C 35.710938 -69.109375 33.210938 -68.421875 31.453125 -67.046875 C 29.703125 -65.671875 28.828125 -63.8125 28.828125 -61.46875 C 28.828125 -60.300781 29.238281 -59.21875 30.0625 -58.21875 C 30.882812 -57.21875 32.296875 -56.148438 34.296875 -55.015625 C 36.296875 -53.878906 38.050781 -52.96875 39.5625 -52.28125 C 41.082031 -51.59375 43.425781 -50.554688 46.59375 -49.171875 C 52.101562 -46.835938 56.800781 -43.65625 60.6875 -39.625 C 64.582031 -35.59375 66.53125 -31.03125 66.53125 -25.9375 C 66.53125 -21.039062 65.648438 -16.765625 63.890625 -13.109375 C 62.140625 -9.460938 59.726562 -6.609375 56.65625 -4.546875 C 53.59375 -2.484375 50.203125 -0.953125 46.484375 0.046875 C 42.765625 1.046875 38.738281 1.546875 34.40625 1.546875 C 30.6875 1.546875 27.035156 1.164062 23.453125 0.40625 C 19.867188 -0.34375 16.867188 -1.285156 14.453125 -2.421875 C 12.046875 -3.554688 9.878906 -4.675781 7.953125 -5.78125 C 6.023438 -6.882812 4.613281 -7.816406 3.71875 -8.578125 L 2.375 -9.71875 L 12.09375 -26.03125 C 12.914062 -25.34375 14.050781 -24.460938 15.5 -23.390625 C 16.945312 -22.328125 19.507812 -20.898438 23.1875 -19.109375 C 26.875 -17.316406 30.128906 -16.421875 32.953125 -16.421875 C 41.148438 -16.421875 45.25 -19.210938 45.25 -24.796875 C 45.25 -25.960938 44.957031 -27.046875 44.375 -28.046875 C 43.789062 -29.046875 42.753906 -30.046875 41.265625 -31.046875 C 39.785156 -32.046875 38.476562 -32.835938 37.34375 -33.421875 C 36.207031 -34.003906 34.347656 -34.898438 31.765625 -36.109375 C 29.179688 -37.316406 27.269531 -38.226562 26.03125 -38.84375 C 20.863281 -41.394531 16.867188 -44.582031 14.046875 -48.40625 C 11.222656 -52.226562 9.8125 -56.34375 9.8125 -60.75 C 9.8125 -68.394531 12.632812 -74.644531 18.28125 -79.5 C 23.9375 -84.351562 30.378906 -86.78125 37.609375 -86.78125 Z M 37.609375 -86.78125 "/></g></g></g><g fill="#000000" fill-opacity="1"><g transform="translate(0.652718, 339.621108)"><g><path d="M 51.546875 -17.5625 C 54.515625 -17.5625 57.390625 -18.007812 60.171875 -18.90625 C 62.960938 -19.800781 65.015625 -20.660156 66.328125 -21.484375 L 68.296875 -22.828125 L 76.546875 -6.296875 C 76.273438 -6.085938 75.894531 -5.8125 75.40625 -5.46875 C 74.925781 -5.125 73.804688 -4.488281 72.046875 -3.5625 C 70.296875 -2.632812 68.421875 -1.828125 66.421875 -1.140625 C 64.429688 -0.453125 61.816406 0.164062 58.578125 0.71875 C 55.335938 1.269531 52 1.546875 48.5625 1.546875 C 40.632812 1.546875 33.125 -0.394531 26.03125 -4.28125 C 18.9375 -8.175781 13.21875 -13.53125 8.875 -20.34375 C 4.539062 -27.164062 2.375 -34.539062 2.375 -42.46875 C 2.375 -48.457031 3.644531 -54.207031 6.1875 -59.71875 C 8.738281 -65.226562 12.132812 -69.941406 16.375 -73.859375 C 20.613281 -77.785156 25.554688 -80.921875 31.203125 -83.265625 C 36.847656 -85.609375 42.632812 -86.78125 48.5625 -86.78125 C 54.070312 -86.78125 59.148438 -86.125 63.796875 -84.8125 C 68.441406 -83.507812 71.726562 -82.203125 73.65625 -80.890625 L 76.546875 -78.9375 L 68.296875 -62.40625 C 67.804688 -62.8125 67.078125 -63.304688 66.109375 -63.890625 C 65.148438 -64.484375 63.222656 -65.257812 60.328125 -66.21875 C 57.441406 -67.1875 54.515625 -67.671875 51.546875 -67.671875 C 46.867188 -67.671875 42.671875 -66.910156 38.953125 -65.390625 C 35.234375 -63.878906 32.285156 -61.882812 30.109375 -59.40625 C 27.941406 -56.925781 26.289062 -54.253906 25.15625 -51.390625 C 24.019531 -48.535156 23.453125 -45.628906 23.453125 -42.671875 C 23.453125 -36.191406 25.878906 -30.382812 30.734375 -25.25 C 35.585938 -20.125 42.523438 -17.5625 51.546875 -17.5625 Z M 51.546875 -17.5625 "/></g></g></g><g fill="#000000" fill-opacity="1"><g transform="translate(78.450529, 339.621108)"><g><path d="M 2.375 -42.671875 C 2.375 -54.992188 6.570312 -65.425781 14.96875 -73.96875 C 23.375 -82.507812 33.503906 -86.78125 45.359375 -86.78125 C 57.273438 -86.78125 67.398438 -82.523438 75.734375 -74.015625 C 84.066406 -65.515625 88.234375 -55.066406 88.234375 -42.671875 C 88.234375 -30.203125 84.132812 -19.710938 75.9375 -11.203125 C 67.738281 -2.703125 57.546875 1.546875 45.359375 1.546875 C 32.890625 1.546875 22.609375 -2.671875 14.515625 -11.109375 C 6.421875 -19.546875 2.375 -30.066406 2.375 -42.671875 Z M 23.34375 -42.671875 C 23.34375 -38.191406 24.03125 -34.109375 25.40625 -30.421875 C 26.789062 -26.734375 29.203125 -23.613281 32.640625 -21.0625 C 36.085938 -18.519531 40.328125 -17.25 45.359375 -17.25 C 52.585938 -17.25 58.039062 -19.726562 61.71875 -24.6875 C 65.40625 -29.644531 67.25 -35.640625 67.25 -42.671875 C 67.25 -49.628906 65.375 -55.601562 61.625 -60.59375 C 57.875 -65.582031 52.453125 -68.078125 45.359375 -68.078125 C 38.328125 -68.078125 32.898438 -65.582031 29.078125 -60.59375 C 25.253906 -55.601562 23.34375 -49.628906 23.34375 -42.671875 Z M 23.34375 -42.671875 "/></g></g></g><g fill="#000000" fill-opacity="1"><g transform="translate(169.059671, 339.621108)"><g><path d="M 25.625 -52.890625 L 25.625 0 L 6.203125 0 L 6.203125 -85.234375 L 25.625 -85.234375 L 59.515625 -32.34375 L 59.71875 -32.34375 L 59.71875 -85.234375 L 79.140625 -85.234375 L 79.140625 0 L 59.71875 0 L 25.828125 -52.890625 Z M 25.625 -52.890625 "/></g></g></g><g fill="#000000" fill-opacity="1"><g transform="translate(254.399647, 339.621108)"><g><path d="M 25.625 -52.890625 L 25.625 0 L 6.203125 0 L 6.203125 -85.234375 L 25.625 -85.234375 L 59.515625 -32.34375 L 59.71875 -32.34375 L 59.71875 -85.234375 L 79.140625 -85.234375 L 79.140625 0 L 59.71875 0 L 25.828125 -52.890625 Z M 25.625 -52.890625 "/></g></g></g><g fill="#000000" fill-opacity="1"><g transform="translate(339.739592, 339.621108)"><g><path d="M 54.96875 -85.234375 L 54.96875 -68.1875 L 25.625 -68.1875 L 25.625 -51.25 L 53.71875 -51.25 L 53.71875 -34.203125 L 25.625 -34.203125 L 25.625 -17.046875 L 54.96875 -17.046875 L 54.96875 0 L 6.203125 0 L 6.203125 -85.234375 Z M 54.96875 -85.234375 "/></g></g></g><g fill="#000000" fill-opacity="1"><g transform="translate(399.663554, 339.621108)"><g><path d="M 51.546875 -17.5625 C 54.515625 -17.5625 57.390625 -18.007812 60.171875 -18.90625 C 62.960938 -19.800781 65.015625 -20.660156 66.328125 -21.484375 L 68.296875 -22.828125 L 76.546875 -6.296875 C 76.273438 -6.085938 75.894531 -5.8125 75.40625 -5.46875 C 74.925781 -5.125 73.804688 -4.488281 72.046875 -3.5625 C 70.296875 -2.632812 68.421875 -1.828125 66.421875 -1.140625 C 64.429688 -0.453125 61.816406 0.164062 58.578125 0.71875 C 55.335938 1.269531 52 1.546875 48.5625 1.546875 C 40.632812 1.546875 33.125 -0.394531 26.03125 -4.28125 C 18.9375 -8.175781 13.21875 -13.53125 8.875 -20.34375 C 4.539062 -27.164062 2.375 -34.539062 2.375 -42.46875 C 2.375 -48.457031 3.644531 -54.207031 6.1875 -59.71875 C 8.738281 -65.226562 12.132812 -69.941406 16.375 -73.859375 C 20.613281 -77.785156 25.554688 -80.921875 31.203125 -83.265625 C 36.847656 -85.609375 42.632812 -86.78125 48.5625 -86.78125 C 54.070312 -86.78125 59.148438 -86.125 63.796875 -84.8125 C 68.441406 -83.507812 71.726562 -82.203125 73.65625 -80.890625 L 76.546875 -78.9375 L 68.296875 -62.40625 C 67.804688 -62.8125 67.078125 -63.304688 66.109375 -63.890625 C 65.148438 -64.484375 63.222656 -65.257812 60.328125 -66.21875 C 57.441406 -67.1875 54.515625 -67.671875 51.546875 -67.671875 C 46.867188 -67.671875 42.671875 -66.910156 38.953125 -65.390625 C 35.234375 -63.878906 32.285156 -61.882812 30.109375 -59.40625 C 27.941406 -56.925781 26.289062 -54.253906 25.15625 -51.390625 C 24.019531 -48.535156 23.453125 -45.628906 23.453125 -42.671875 C 23.453125 -36.191406 25.878906 -30.382812 30.734375 -25.25 C 35.585938 -20.125 42.523438 -17.5625 51.546875 -17.5625 Z M 51.546875 -17.5625 "/></g></g></g><g fill="#000000" fill-opacity="1"><g transform="translate(477.461333, 339.621108)"><g><path d="M 0.828125 -68.1875 L 0.828125 -85.234375 L 60.75 -85.234375 L 60.75 -68.1875 L 40.5 -68.1875 L 40.5 0 L 21.078125 0 L 21.078125 -68.1875 Z M 0.828125 -68.1875 "/></g></g></g><g fill="#000000" fill-opacity="1"><g transform="translate(539.048428, 339.621108)"><g/></g></g><g fill="#000000" fill-opacity="1"><g transform="translate(567.254013, 339.621108)"><g/></g></g><g fill="#000000" fill-opacity="1"><g transform="translate(595.463341, 339.621108)"><g><path d="M 71.59375 0 L 57.953125 -47.828125 L 44.328125 0 L 22.734375 0 L -1.546875 -85.234375 L 20.046875 -85.234375 L 34.609375 -26.765625 L 35.125 -26.765625 L 50.625 -85.234375 L 65.296875 -85.234375 L 80.796875 -26.765625 L 81.3125 -26.765625 L 95.875 -85.234375 L 117.359375 -85.234375 L 93.078125 0 Z M 71.59375 0 "/></g></g></g><g fill="#000000" fill-opacity="1"><g transform="translate(711.281859, 339.621108)"><g><path d="M 25.625 -85.234375 L 25.625 0 L 6.203125 0 L 6.203125 -85.234375 Z M 25.625 -85.234375 "/></g></g></g><g fill="#000000" fill-opacity="1"><g transform="translate(743.103544, 339.621108)"><g><path d="M 0.828125 -68.1875 L 0.828125 -85.234375 L 60.75 -85.234375 L 60.75 -68.1875 L 40.5 -68.1875 L 40.5 0 L 21.078125 0 L 21.078125 -68.1875 Z M 0.828125 -68.1875 "/></g></g></g><g fill="#000000" fill-opacity="1"><g transform="translate(804.680562, 339.621108)"><g><path d="M 25.625 -34.203125 L 25.625 0 L 6.203125 0 L 6.203125 -85.234375 L 25.625 -85.234375 L 25.625 -51.25 L 53.109375 -51.25 L 53.109375 -85.234375 L 72.53125 -85.234375 L 72.53125 0 L 53.109375 0 L 53.109375 -34.203125 Z M 25.625 -34.203125 "/></g></g></g><g fill="#000000" fill-opacity="1"><g transform="translate(883.410192, 339.621108)"><g/></g></g><g fill="#000000" fill-opacity="1"><g transform="translate(911.615777, 339.621108)"><g/></g></g><g fill="#000000" fill-opacity="1"><g transform="translate(939.825105, 339.621108)"><g><path d="M 6.203125 -85.234375 L 37.296875 -85.234375 C 45.972656 -85.234375 53 -82.992188 58.375 -78.515625 C 63.75 -74.035156 66.4375 -67.523438 66.4375 -58.984375 C 66.4375 -50.453125 63.710938 -43.753906 58.265625 -38.890625 C 52.828125 -34.035156 45.835938 -31.609375 37.296875 -31.609375 L 25.625 -31.609375 L 25.625 0 L 6.203125 0 Z M 25.625 -47.109375 L 31.09375 -47.109375 C 35.4375 -47.109375 39 -47.984375 41.78125 -49.734375 C 44.570312 -51.492188 45.96875 -54.375 45.96875 -58.375 C 45.96875 -62.4375 44.570312 -65.34375 41.78125 -67.09375 C 39 -68.851562 35.4375 -69.734375 31.09375 -69.734375 L 25.625 -69.734375 Z M 25.625 -47.109375 "/></g></g></g><g fill="#000000" fill-opacity="1"><g transform="translate(1008.634322, 339.621108)"><g><path d="M 54.96875 -85.234375 L 54.96875 -68.1875 L 25.625 -68.1875 L 25.625 -51.25 L 53.71875 -51.25 L 53.71875 -34.203125 L 25.625 -34.203125 L 25.625 -17.046875 L 54.96875 -17.046875 L 54.96875 0 L 6.203125 0 L 6.203125 -85.234375 Z M 54.96875 -85.234375 "/></g></g></g><g fill="#000000" fill-opacity="1"><g transform="translate(1068.558263, 339.621108)"><g><path d="M 54.96875 -85.234375 L 54.96875 -68.1875 L 25.625 -68.1875 L 25.625 -51.25 L 53.71875 -51.25 L 53.71875 -34.203125 L 25.625 -34.203125 L 25.625 -17.046875 L 54.96875 -17.046875 L 54.96875 0 L 6.203125 0 L 6.203125 -85.234375 Z M 54.96875 -85.234375 "/></g></g></g><g fill="#000000" fill-opacity="1"><g transform="translate(1128.482203, 339.621108)"><g><path d="M 6.203125 -85.234375 L 36.671875 -85.234375 C 44.867188 -85.234375 51.550781 -83.046875 56.71875 -78.671875 C 61.882812 -74.296875 64.46875 -68.046875 64.46875 -59.921875 C 64.46875 -53.648438 62.898438 -48.394531 59.765625 -44.15625 C 56.628906 -39.925781 52.375 -36.953125 47 -35.234375 L 76.34375 0 L 51.65625 0 L 25.625 -33.6875 L 25.625 0 L 6.203125 0 Z M 25.625 -47.421875 L 27.890625 -47.421875 C 29.679688 -47.421875 31.195312 -47.453125 32.4375 -47.515625 C 33.675781 -47.585938 35.085938 -47.828125 36.671875 -48.234375 C 38.253906 -48.648438 39.523438 -49.238281 40.484375 -50 C 41.453125 -50.757812 42.28125 -51.863281 42.96875 -53.3125 C 43.664062 -54.757812 44.015625 -56.515625 44.015625 -58.578125 C 44.015625 -60.640625 43.664062 -62.394531 42.96875 -63.84375 C 42.28125 -65.289062 41.453125 -66.394531 40.484375 -67.15625 C 39.523438 -67.914062 38.253906 -68.5 36.671875 -68.90625 C 35.085938 -69.320312 33.675781 -69.5625 32.4375 -69.625 C 31.195312 -69.695312 29.679688 -69.734375 27.890625 -69.734375 L 25.625 -69.734375 Z M 25.625 -47.421875 "/></g></g></g><g fill="#000000" fill-opacity="1"><g transform="translate(1202.457289, 339.621108)"><g><path d="M 37.609375 -86.78125 C 42.222656 -86.78125 46.734375 -86.109375 51.140625 -84.765625 C 55.546875 -83.421875 58.816406 -82.097656 60.953125 -80.796875 L 64.046875 -78.71875 L 56.203125 -63.234375 C 55.578125 -63.640625 54.710938 -64.171875 53.609375 -64.828125 C 52.515625 -65.484375 50.453125 -66.359375 47.421875 -67.453125 C 44.390625 -68.554688 41.566406 -69.109375 38.953125 -69.109375 C 35.710938 -69.109375 33.210938 -68.421875 31.453125 -67.046875 C 29.703125 -65.671875 28.828125 -63.8125 28.828125 -61.46875 C 28.828125 -60.300781 29.238281 -59.21875 30.0625 -58.21875 C 30.882812 -57.21875 32.296875 -56.148438 34.296875 -55.015625 C 36.296875 -53.878906 38.050781 -52.96875 39.5625 -52.28125 C 41.082031 -51.59375 43.425781 -50.554688 46.59375 -49.171875 C 52.101562 -46.835938 56.800781 -43.65625 60.6875 -39.625 C 64.582031 -35.59375 66.53125 -31.03125 66.53125 -25.9375 C 66.53125 -21.039062 65.648438 -16.765625 63.890625 -13.109375 C 62.140625 -9.460938 59.726562 -6.609375 56.65625 -4.546875 C 53.59375 -2.484375 50.203125 -0.953125 46.484375 0.046875 C 42.765625 1.046875 38.738281 1.546875 34.40625 1.546875 C 30.6875 1.546875 27.035156 1.164062 23.453125 0.40625 C 19.867188 -0.34375 16.867188 -1.285156 14.453125 -2.421875 C 12.046875 -3.554688 9.878906 -4.675781 7.953125 -5.78125 C 6.023438 -6.882812 4.613281 -7.816406 3.71875 -8.578125 L 2.375 -9.71875 L 12.09375 -26.03125 C 12.914062 -25.34375 14.050781 -24.460938 15.5 -23.390625 C 16.945312 -22.328125 19.507812 -20.898438 23.1875 -19.109375 C 26.875 -17.316406 30.128906 -16.421875 32.953125 -16.421875 C 41.148438 -16.421875 45.25 -19.210938 45.25 -24.796875 C 45.25 -25.960938 44.957031 -27.046875 44.375 -28.046875 C 43.789062 -29.046875 42.753906 -30.046875 41.265625 -31.046875 C 39.785156 -32.046875 38.476562 -32.835938 37.34375 -33.421875 C 36.207031 -34.003906 34.347656 -34.898438 31.765625 -36.109375 C 29.179688 -37.316406 27.269531 -38.226562 26.03125 -38.84375 C 20.863281 -41.394531 16.867188 -44.582031 14.046875 -48.40625 C 11.222656 -52.226562 9.8125 -56.34375 9.8125 -60.75 C 9.8125 -68.394531 12.632812 -74.644531 18.28125 -79.5 C 23.9375 -84.351562 30.378906 -86.78125 37.609375 -86.78125 Z M 37.609375 -86.78125 "/></g></g></g><g clip-path="url(#fde27a335c)"><path stroke-linecap="butt" transform="matrix(0.693391, 0.00426745, -0.00426745, 0.693391, 24.142746, 364.425929)" fill="none" stroke-linejoin="miter" d="M -0.00201859 1.999708 L 1824.298258 1.999772 " stroke="#000000" stroke-width="4" stroke-opacity="1" stroke-miterlimit="4"/></g><g fill="#000000" fill-opacity="1"><g transform="translate(845.537472, 155.695661)"><g><path d="M 17.46875 0 L 13.375 0 L 13.375 -17.46875 L 10.78125 -8.1875 L 7.609375 -8.1875 L 5.0625 -17.46875 L 5.0625 0 L 0.96875 0 L 0.96875 -25.8125 L 5.84375 -25.8125 L 9.203125 -14.140625 L 12.5625 -25.8125 L 17.46875 -25.8125 Z M 17.46875 0 "/></g></g></g><g fill="#000000" fill-opacity="1"><g transform="translate(868.861297, 155.695661)"><g><path d="M 15.359375 0 L 13.484375 -6.15625 L 4.953125 -6.15625 L 3.125 0 L -1.171875 0 L 6.890625 -25.8125 L 11.59375 -25.8125 L 19.640625 0 Z M 6.03125 -9.765625 L 12.40625 -9.765625 L 9.234375 -20.421875 Z M 6.03125 -9.765625 "/></g></g></g><g fill="#000000" fill-opacity="1"><g transform="translate(892.185121, 155.695661)"><g><path d="M 19.28125 -12.921875 C 19.28125 -11.191406 19.097656 -9.546875 18.734375 -7.984375 C 18.378906 -6.421875 17.800781 -5.046875 17 -3.859375 C 16.207031 -2.679688 15.179688 -1.742188 13.921875 -1.046875 C 12.660156 -0.347656 11.140625 0 9.359375 0 L 0.96875 0 L 0.96875 -25.8125 L 9.359375 -25.8125 C 11.109375 -25.8125 12.613281 -25.457031 13.875 -24.75 C 15.132812 -24.050781 16.160156 -23.113281 16.953125 -21.9375 C 17.753906 -20.757812 18.34375 -19.394531 18.71875 -17.84375 C 19.09375 -16.289062 19.28125 -14.648438 19.28125 -12.921875 Z M 15.1875 -12.921875 C 15.1875 -15.898438 14.675781 -18.175781 13.65625 -19.75 C 12.644531 -21.332031 11.210938 -22.125 9.359375 -22.125 L 5.0625 -22.125 L 5.0625 -3.671875 L 9.359375 -3.671875 C 11.210938 -3.671875 12.644531 -4.472656 13.65625 -6.078125 C 14.675781 -7.691406 15.1875 -9.972656 15.1875 -12.921875 Z M 15.1875 -12.921875 "/></g></g></g><g fill="#000000" fill-opacity="1"><g transform="translate(915.508946, 155.695661)"><g><path d="M 17.46875 0 L 0.96875 0 L 0.96875 -25.8125 L 17.46875 -25.8125 L 17.46875 -22.125 L 5.0625 -22.125 L 5.0625 -15 L 14.734375 -15 L 14.734375 -11.296875 L 5.0625 -11.296875 L 5.0625 -3.671875 L 17.46875 -3.671875 Z M 17.46875 0 "/></g></g></g><g fill="#000000" fill-opacity="1"><g transform="translate(938.832771, 155.695661)"><g/></g></g><g fill="#000000" fill-opacity="1"><g transform="translate(962.156595, 155.695661)"><g><path d="M 18.390625 -7.078125 C 18.390625 -4.734375 17.59375 -2.96875 16 -1.78125 C 14.40625 -0.59375 12.140625 0 9.203125 0 L 0.96875 0 L 0.96875 -25.8125 L 8.75 -25.8125 C 9.820312 -25.8125 10.878906 -25.722656 11.921875 -25.546875 C 12.960938 -25.367188 13.894531 -25.035156 14.71875 -24.546875 C 15.550781 -24.054688 16.222656 -23.375 16.734375 -22.5 C 17.253906 -21.625 17.515625 -20.488281 17.515625 -19.09375 C 17.515625 -17.78125 17.179688 -16.582031 16.515625 -15.5 C 15.847656 -14.425781 14.835938 -13.648438 13.484375 -13.171875 C 15.140625 -12.660156 16.367188 -11.941406 17.171875 -11.015625 C 17.984375 -10.097656 18.390625 -8.785156 18.390625 -7.078125 Z M 13.453125 -18.5625 C 13.453125 -19.3125 13.3125 -19.921875 13.03125 -20.390625 C 12.75 -20.867188 12.378906 -21.234375 11.921875 -21.484375 C 11.472656 -21.742188 10.972656 -21.914062 10.421875 -22 C 9.867188 -22.082031 9.3125 -22.125 8.75 -22.125 L 5.0625 -22.125 L 5.0625 -15 L 8.75 -15 C 9.3125 -15 9.867188 -15.035156 10.421875 -15.109375 C 10.972656 -15.191406 11.472656 -15.359375 11.921875 -15.609375 C 12.378906 -15.867188 12.75 -16.234375 13.03125 -16.703125 C 13.3125 -17.179688 13.453125 -17.800781 13.453125 -18.5625 Z M 14.34375 -7.5 C 14.34375 -8.789062 13.890625 -9.742188 12.984375 -10.359375 C 12.078125 -10.984375 10.816406 -11.296875 9.203125 -11.296875 L 5.0625 -11.296875 L 5.0625 -3.671875 L 9.203125 -3.671875 C 10.816406 -3.671875 12.078125 -3.984375 12.984375 -4.609375 C 13.890625 -5.242188 14.34375 -6.207031 14.34375 -7.5 Z M 14.34375 -7.5 "/></g></g></g><g fill="#000000" fill-opacity="1"><g transform="translate(985.48042, 155.695661)"><g><path d="M 18.828125 -22.125 L 16.96875 -22.125 L 11.25 -10.53125 L 11.25 -3.671875 L 15.390625 -3.671875 L 15.390625 0 L 3.046875 0 L 3.046875 -3.671875 L 7.15625 -3.671875 L 7.15625 -10.53125 L 1.46875 -22.125 L -0.390625 -22.125 L -0.390625 -25.8125 L 7.734375 -25.8125 L 7.734375 -22.125 L 5.953125 -22.125 L 9.234375 -14.546875 L 12.484375 -22.125 L 10.703125 -22.125 L 10.703125 -25.8125 L 18.828125 -25.8125 Z M 18.828125 -22.125 "/></g></g></g><g fill="#000000" fill-opacity="1"><g transform="translate(1008.804244, 155.695661)"><g/></g></g><g fill="#000000" fill-opacity="1"><g transform="translate(1032.128069, 155.695661)"><g><path d="M 17.78125 -7.078125 C 17.78125 -5.890625 17.578125 -4.832031 17.171875 -3.90625 C 16.773438 -2.976562 16.226562 -2.191406 15.53125 -1.546875 C 14.84375 -0.898438 14.019531 -0.40625 13.0625 -0.0625 C 12.101562 0.28125 11.085938 0.453125 10.015625 0.453125 C 8.796875 0.453125 7.695312 0.238281 6.71875 -0.1875 C 5.75 -0.625 4.914062 -1.347656 4.21875 -2.359375 L 4.21875 0 L 0.53125 0 L 0.53125 -8.421875 L 4.21875 -8.421875 C 4.21875 -7.578125 4.363281 -6.832031 4.65625 -6.1875 C 4.957031 -5.539062 5.347656 -4.992188 5.828125 -4.546875 C 6.316406 -4.109375 6.882812 -3.773438 7.53125 -3.546875 C 8.175781 -3.316406 8.863281 -3.203125 9.59375 -3.203125 C 10.820312 -3.203125 11.8125 -3.484375 12.5625 -4.046875 C 13.3125 -4.617188 13.6875 -5.523438 13.6875 -6.765625 C 13.6875 -7.410156 13.570312 -7.960938 13.34375 -8.421875 C 13.113281 -8.890625 12.785156 -9.300781 12.359375 -9.65625 C 11.929688 -10.019531 11.40625 -10.335938 10.78125 -10.609375 C 10.164062 -10.878906 9.460938 -11.164062 8.671875 -11.46875 C 7.734375 -11.789062 6.796875 -12.148438 5.859375 -12.546875 C 4.921875 -12.941406 4.082031 -13.425781 3.34375 -14 C 2.601562 -14.582031 2 -15.296875 1.53125 -16.140625 C 1.070312 -16.992188 0.84375 -18.070312 0.84375 -19.375 C 0.84375 -20.5 1.050781 -21.488281 1.46875 -22.34375 C 1.882812 -23.195312 2.4375 -23.910156 3.125 -24.484375 C 3.820312 -25.066406 4.628906 -25.503906 5.546875 -25.796875 C 6.460938 -26.097656 7.4375 -26.25 8.46875 -26.25 C 9.65625 -26.25 10.671875 -26 11.515625 -25.5 C 12.367188 -25 13.023438 -24.332031 13.484375 -23.5 L 13.484375 -25.8125 L 17.171875 -25.8125 L 17.171875 -17.78125 L 13.484375 -17.78125 C 13.484375 -19.300781 13.082031 -20.484375 12.28125 -21.328125 C 11.488281 -22.179688 10.421875 -22.609375 9.078125 -22.609375 C 7.890625 -22.609375 6.90625 -22.332031 6.125 -21.78125 C 5.34375 -21.226562 4.953125 -20.453125 4.953125 -19.453125 C 4.953125 -18.929688 5.050781 -18.488281 5.25 -18.125 C 5.457031 -17.769531 5.753906 -17.441406 6.140625 -17.140625 C 6.523438 -16.847656 7.015625 -16.570312 7.609375 -16.3125 C 8.203125 -16.050781 8.890625 -15.769531 9.671875 -15.46875 C 10.648438 -15.125 11.617188 -14.734375 12.578125 -14.296875 C 13.546875 -13.867188 14.410156 -13.335938 15.171875 -12.703125 C 15.941406 -12.066406 16.566406 -11.296875 17.046875 -10.390625 C 17.535156 -9.492188 17.78125 -8.390625 17.78125 -7.078125 Z M 17.78125 -7.078125 "/></g></g></g><g fill="#000000" fill-opacity="1"><g transform="translate(1055.451905, 155.695661)"><g><path d="M 18.390625 -16.40625 L 14.734375 -16.40625 L 14.734375 -22.125 L 11.25 -22.125 L 11.25 -3.671875 L 15.359375 -3.671875 L 15.359375 0 L 3.09375 0 L 3.09375 -3.671875 L 7.15625 -3.671875 L 7.15625 -22.125 L 3.640625 -22.125 L 3.640625 -16.40625 L 0 -16.40625 L 0 -25.8125 L 18.390625 -25.8125 Z M 18.390625 -16.40625 "/></g></g></g><g fill="#000000" fill-opacity="1"><g transform="translate(1078.775719, 155.695661)"><g><path d="M 17.46875 -9.203125 C 17.46875 -7.734375 17.304688 -6.40625 16.984375 -5.21875 C 16.660156 -4.03125 16.160156 -3.019531 15.484375 -2.1875 C 14.804688 -1.351562 13.941406 -0.703125 12.890625 -0.234375 C 11.847656 0.222656 10.617188 0.453125 9.203125 0.453125 C 7.765625 0.453125 6.53125 0.222656 5.5 -0.234375 C 4.476562 -0.703125 3.628906 -1.351562 2.953125 -2.1875 C 2.273438 -3.019531 1.773438 -4.035156 1.453125 -5.234375 C 1.128906 -6.441406 0.96875 -7.773438 0.96875 -9.234375 L 0.96875 -25.8125 L 5.0625 -25.8125 L 5.0625 -9.203125 C 5.0625 -8.554688 5.109375 -7.882812 5.203125 -7.1875 C 5.296875 -6.5 5.484375 -5.859375 5.765625 -5.265625 C 6.046875 -4.671875 6.460938 -4.1875 7.015625 -3.8125 C 7.578125 -3.4375 8.304688 -3.25 9.203125 -3.25 C 10.085938 -3.25 10.804688 -3.4375 11.359375 -3.8125 C 11.910156 -4.1875 12.335938 -4.660156 12.640625 -5.234375 C 12.941406 -5.816406 13.140625 -6.460938 13.234375 -7.171875 C 13.328125 -7.878906 13.375 -8.554688 13.375 -9.203125 L 13.375 -25.8125 L 17.46875 -25.8125 Z M 17.46875 -9.203125 "/></g></g></g><g fill="#000000" fill-opacity="1"><g transform="translate(1102.099533, 155.695661)"><g><path d="M 19.28125 -12.921875 C 19.28125 -11.191406 19.097656 -9.546875 18.734375 -7.984375 C 18.378906 -6.421875 17.800781 -5.046875 17 -3.859375 C 16.207031 -2.679688 15.179688 -1.742188 13.921875 -1.046875 C 12.660156 -0.347656 11.140625 0 9.359375 0 L 0.96875 0 L 0.96875 -25.8125 L 9.359375 -25.8125 C 11.109375 -25.8125 12.613281 -25.457031 13.875 -24.75 C 15.132812 -24.050781 16.160156 -23.113281 16.953125 -21.9375 C 17.753906 -20.757812 18.34375 -19.394531 18.71875 -17.84375 C 19.09375 -16.289062 19.28125 -14.648438 19.28125 -12.921875 Z M 15.1875 -12.921875 C 15.1875 -15.898438 14.675781 -18.175781 13.65625 -19.75 C 12.644531 -21.332031 11.210938 -22.125 9.359375 -22.125 L 5.0625 -22.125 L 5.0625 -3.671875 L 9.359375 -3.671875 C 11.210938 -3.671875 12.644531 -4.472656 13.65625 -6.078125 C 14.675781 -7.691406 15.1875 -9.972656 15.1875 -12.921875 Z M 15.1875 -12.921875 "/></g></g></g><g fill="#000000" fill-opacity="1"><g transform="translate(1125.423369, 155.695661)"><g><path d="M 17.46875 0 L 0.96875 0 L 0.96875 -25.8125 L 17.46875 -25.8125 L 17.46875 -22.125 L 5.0625 -22.125 L 5.0625 -15 L 14.734375 -15 L 14.734375 -11.296875 L 5.0625 -11.296875 L 5.0625 -3.671875 L 17.46875 -3.671875 Z M 17.46875 0 "/></g></g></g><g fill="#000000" fill-opacity="1"><g transform="translate(1148.747204, 155.695661)"><g><path d="M 17.46875 0 L 12.71875 0 L 5.0625 -18.71875 L 5.0625 0 L 0.96875 0 L 0.96875 -25.8125 L 6.109375 -25.8125 L 13.375 -8.03125 L 13.375 -25.8125 L 17.46875 -25.8125 Z M 17.46875 0 "/></g></g></g><g fill="#000000" fill-opacity="1"><g transform="translate(1172.071018, 155.695661)"><g><path d="M 18.390625 -16.40625 L 14.734375 -16.40625 L 14.734375 -22.125 L 11.25 -22.125 L 11.25 -3.671875 L 15.359375 -3.671875 L 15.359375 0 L 3.09375 0 L 3.09375 -3.671875 L 7.15625 -3.671875 L 7.15625 -22.125 L 3.640625 -22.125 L 3.640625 -16.40625 L 0 -16.40625 L 0 -25.8125 L 18.390625 -25.8125 Z M 18.390625 -16.40625 "/></g></g></g><g fill="#000000" fill-opacity="1"><g transform="translate(1195.394833, 155.695661)"><g><path d="M 17.78125 -7.078125 C 17.78125 -5.890625 17.578125 -4.832031 17.171875 -3.90625 C 16.773438 -2.976562 16.226562 -2.191406 15.53125 -1.546875 C 14.84375 -0.898438 14.019531 -0.40625 13.0625 -0.0625 C 12.101562 0.28125 11.085938 0.453125 10.015625 0.453125 C 8.796875 0.453125 7.695312 0.238281 6.71875 -0.1875 C 5.75 -0.625 4.914062 -1.347656 4.21875 -2.359375 L 4.21875 0 L 0.53125 0 L 0.53125 -8.421875 L 4.21875 -8.421875 C 4.21875 -7.578125 4.363281 -6.832031 4.65625 -6.1875 C 4.957031 -5.539062 5.347656 -4.992188 5.828125 -4.546875 C 6.316406 -4.109375 6.882812 -3.773438 7.53125 -3.546875 C 8.175781 -3.316406 8.863281 -3.203125 9.59375 -3.203125 C 10.820312 -3.203125 11.8125 -3.484375 12.5625 -4.046875 C 13.3125 -4.617188 13.6875 -5.523438 13.6875 -6.765625 C 13.6875 -7.410156 13.570312 -7.960938 13.34375 -8.421875 C 13.113281 -8.890625 12.785156 -9.300781 12.359375 -9.65625 C 11.929688 -10.019531 11.40625 -10.335938 10.78125 -10.609375 C 10.164062 -10.878906 9.460938 -11.164062 8.671875 -11.46875 C 7.734375 -11.789062 6.796875 -12.148438 5.859375 -12.546875 C 4.921875 -12.941406 4.082031 -13.425781 3.34375 -14 C 2.601562 -14.582031 2 -15.296875 1.53125 -16.140625 C 1.070312 -16.992188 0.84375 -18.070312 0.84375 -19.375 C 0.84375 -20.5 1.050781 -21.488281 1.46875 -22.34375 C 1.882812 -23.195312 2.4375 -23.910156 3.125 -24.484375 C 3.820312 -25.066406 4.628906 -25.503906 5.546875 -25.796875 C 6.460938 -26.097656 7.4375 -26.25 8.46875 -26.25 C 9.65625 -26.25 10.671875 -26 11.515625 -25.5 C 12.367188 -25 13.023438 -24.332031 13.484375 -23.5 L 13.484375 -25.8125 L 17.171875 -25.8125 L 17.171875 -17.78125 L 13.484375 -17.78125 C 13.484375 -19.300781 13.082031 -20.484375 12.28125 -21.328125 C 11.488281 -22.179688 10.421875 -22.609375 9.078125 -22.609375 C 7.890625 -22.609375 6.90625 -22.332031 6.125 -21.78125 C 5.34375 -21.226562 4.953125 -20.453125 4.953125 -19.453125 C 4.953125 -18.929688 5.050781 -18.488281 5.25 -18.125 C 5.457031 -17.769531 5.753906 -17.441406 6.140625 -17.140625 C 6.523438 -16.847656 7.015625 -16.570312 7.609375 -16.3125 C 8.203125 -16.050781 8.890625 -15.769531 9.671875 -15.46875 C 10.648438 -15.125 11.617188 -14.734375 12.578125 -14.296875 C 13.546875 -13.867188 14.410156 -13.335938 15.171875 -12.703125 C 15.941406 -12.066406 16.566406 -11.296875 17.046875 -10.390625 C 17.535156 -9.492188 17.78125 -8.390625 17.78125 -7.078125 Z M 17.78125 -7.078125 "/></g></g></g><g fill="#000000" fill-opacity="1"><g transform="translate(1218.71884, 155.695661)"><g/></g></g><g fill="#000000" fill-opacity="1"><g transform="translate(845.537472, 216.02181)"><g><path d="M 17.46875 -22.125 L 5.0625 -22.125 L 5.0625 -15 L 14.734375 -15 L 14.734375 -11.296875 L 5.0625 -11.296875 L 5.0625 0 L 0.96875 0 L 0.96875 -25.8125 L 17.46875 -25.8125 Z M 17.46875 -22.125 "/></g></g></g><g fill="#000000" fill-opacity="1"><g transform="translate(868.861297, 216.02181)"><g><path d="M -0.65625 -12.921875 C -0.65625 -14.648438 -0.46875 -16.316406 -0.09375 -17.921875 C 0.269531 -19.535156 0.84375 -20.953125 1.625 -22.171875 C 2.40625 -23.398438 3.421875 -24.382812 4.671875 -25.125 C 5.929688 -25.875 7.453125 -26.25 9.234375 -26.25 C 11.015625 -26.25 12.535156 -25.875 13.796875 -25.125 C 15.054688 -24.382812 16.082031 -23.398438 16.875 -22.171875 C 17.664062 -20.953125 18.238281 -19.535156 18.59375 -17.921875 C 18.945312 -16.316406 19.125 -14.648438 19.125 -12.921875 C 19.125 -11.191406 18.945312 -9.523438 18.59375 -7.921875 C 18.238281 -6.316406 17.671875 -4.890625 16.890625 -3.640625 C 16.117188 -2.398438 15.101562 -1.40625 13.84375 -0.65625 C 12.582031 0.0820312 11.046875 0.453125 9.234375 0.453125 C 7.429688 0.453125 5.898438 0.0820312 4.640625 -0.65625 C 3.378906 -1.40625 2.351562 -2.398438 1.5625 -3.640625 C 0.78125 -4.890625 0.21875 -6.316406 -0.125 -7.921875 C -0.476562 -9.523438 -0.65625 -11.191406 -0.65625 -12.921875 Z M 3.4375 -12.921875 C 3.4375 -11.753906 3.523438 -10.59375 3.703125 -9.4375 C 3.878906 -8.28125 4.179688 -7.242188 4.609375 -6.328125 C 5.046875 -5.410156 5.632812 -4.664062 6.375 -4.09375 C 7.125 -3.53125 8.078125 -3.25 9.234375 -3.25 C 10.398438 -3.25 11.351562 -3.53125 12.09375 -4.09375 C 12.84375 -4.664062 13.429688 -5.410156 13.859375 -6.328125 C 14.285156 -7.242188 14.585938 -8.28125 14.765625 -9.4375 C 14.941406 -10.59375 15.03125 -11.753906 15.03125 -12.921875 C 15.03125 -14.078125 14.941406 -15.226562 14.765625 -16.375 C 14.585938 -17.519531 14.285156 -18.554688 13.859375 -19.484375 C 13.429688 -20.410156 12.835938 -21.15625 12.078125 -21.71875 C 11.316406 -22.289062 10.367188 -22.578125 9.234375 -22.578125 C 7.347656 -22.578125 5.910156 -21.722656 4.921875 -20.015625 C 3.929688 -18.316406 3.4375 -15.953125 3.4375 -12.921875 Z M 3.4375 -12.921875 "/></g></g></g><g fill="#000000" fill-opacity="1"><g transform="translate(892.185121, 216.02181)"><g><path d="M 18.796875 0 L 13.609375 0 L 6.921875 -10.453125 L 5.0625 -10.453125 L 5.0625 0 L 0.96875 0 L 0.96875 -25.8125 L 9.46875 -25.8125 C 12.3125 -25.8125 14.515625 -25.160156 16.078125 -23.859375 C 17.648438 -22.566406 18.4375 -20.644531 18.4375 -18.09375 C 18.4375 -16.96875 18.257812 -15.972656 17.90625 -15.109375 C 17.5625 -14.242188 17.066406 -13.5 16.421875 -12.875 C 15.785156 -12.257812 15.039062 -11.769531 14.1875 -11.40625 C 13.34375 -11.039062 12.425781 -10.789062 11.4375 -10.65625 Z M 14.34375 -18.15625 C 14.34375 -19.476562 13.910156 -20.46875 13.046875 -21.125 C 12.179688 -21.789062 10.988281 -22.125 9.46875 -22.125 L 5.0625 -22.125 L 5.0625 -14.140625 L 9.46875 -14.140625 C 10.988281 -14.140625 12.179688 -14.46875 13.046875 -15.125 C 13.910156 -15.789062 14.34375 -16.800781 14.34375 -18.15625 Z M 14.34375 -18.15625 "/></g></g></g><g fill="#000000" fill-opacity="1"><g transform="translate(915.508946, 216.02181)"><g/></g></g><g fill="#000000" fill-opacity="1"><g transform="translate(938.832771, 216.02181)"><g><path d="M 17.78125 -7.078125 C 17.78125 -5.890625 17.578125 -4.832031 17.171875 -3.90625 C 16.773438 -2.976562 16.226562 -2.191406 15.53125 -1.546875 C 14.84375 -0.898438 14.019531 -0.40625 13.0625 -0.0625 C 12.101562 0.28125 11.085938 0.453125 10.015625 0.453125 C 8.796875 0.453125 7.695312 0.238281 6.71875 -0.1875 C 5.75 -0.625 4.914062 -1.347656 4.21875 -2.359375 L 4.21875 0 L 0.53125 0 L 0.53125 -8.421875 L 4.21875 -8.421875 C 4.21875 -7.578125 4.363281 -6.832031 4.65625 -6.1875 C 4.957031 -5.539062 5.347656 -4.992188 5.828125 -4.546875 C 6.316406 -4.109375 6.882812 -3.773438 7.53125 -3.546875 C 8.175781 -3.316406 8.863281 -3.203125 9.59375 -3.203125 C 10.820312 -3.203125 11.8125 -3.484375 12.5625 -4.046875 C 13.3125 -4.617188 13.6875 -5.523438 13.6875 -6.765625 C 13.6875 -7.410156 13.570312 -7.960938 13.34375 -8.421875 C 13.113281 -8.890625 12.785156 -9.300781 12.359375 -9.65625 C 11.929688 -10.019531 11.40625 -10.335938 10.78125 -10.609375 C 10.164062 -10.878906 9.460938 -11.164062 8.671875 -11.46875 C 7.734375 -11.789062 6.796875 -12.148438 5.859375 -12.546875 C 4.921875 -12.941406 4.082031 -13.425781 3.34375 -14 C 2.601562 -14.582031 2 -15.296875 1.53125 -16.140625 C 1.070312 -16.992188 0.84375 -18.070312 0.84375 -19.375 C 0.84375 -20.5 1.050781 -21.488281 1.46875 -22.34375 C 1.882812 -23.195312 2.4375 -23.910156 3.125 -24.484375 C 3.820312 -25.066406 4.628906 -25.503906 5.546875 -25.796875 C 6.460938 -26.097656 7.4375 -26.25 8.46875 -26.25 C 9.65625 -26.25 10.671875 -26 11.515625 -25.5 C 12.367188 -25 13.023438 -24.332031 13.484375 -23.5 L 13.484375 -25.8125 L 17.171875 -25.8125 L 17.171875 -17.78125 L 13.484375 -17.78125 C 13.484375 -19.300781 13.082031 -20.484375 12.28125 -21.328125 C 11.488281 -22.179688 10.421875 -22.609375 9.078125 -22.609375 C 7.890625 -22.609375 6.90625 -22.332031 6.125 -21.78125 C 5.34375 -21.226562 4.953125 -20.453125 4.953125 -19.453125 C 4.953125 -18.929688 5.050781 -18.488281 5.25 -18.125 C 5.457031 -17.769531 5.753906 -17.441406 6.140625 -17.140625 C 6.523438 -16.847656 7.015625 -16.570312 7.609375 -16.3125 C 8.203125 -16.050781 8.890625 -15.769531 9.671875 -15.46875 C 10.648438 -15.125 11.617188 -14.734375 12.578125 -14.296875 C 13.546875 -13.867188 14.410156 -13.335938 15.171875 -12.703125 C 15.941406 -12.066406 16.566406 -11.296875 17.046875 -10.390625 C 17.535156 -9.492188 17.78125 -8.390625 17.78125 -7.078125 Z M 17.78125 -7.078125 "/></g></g></g><g fill="#000000" fill-opacity="1"><g transform="translate(962.156595, 216.02181)"><g><path d="M 18.390625 -16.40625 L 14.734375 -16.40625 L 14.734375 -22.125 L 11.25 -22.125 L 11.25 -3.671875 L 15.359375 -3.671875 L 15.359375 0 L 3.09375 0 L 3.09375 -3.671875 L 7.15625 -3.671875 L 7.15625 -22.125 L 3.640625 -22.125 L 3.640625 -16.40625 L 0 -16.40625 L 0 -25.8125 L 18.390625 -25.8125 Z M 18.390625 -16.40625 "/></g></g></g><g fill="#000000" fill-opacity="1"><g transform="translate(985.48042, 216.02181)"><g><path d="M 17.46875 -9.203125 C 17.46875 -7.734375 17.304688 -6.40625 16.984375 -5.21875 C 16.660156 -4.03125 16.160156 -3.019531 15.484375 -2.1875 C 14.804688 -1.351562 13.941406 -0.703125 12.890625 -0.234375 C 11.847656 0.222656 10.617188 0.453125 9.203125 0.453125 C 7.765625 0.453125 6.53125 0.222656 5.5 -0.234375 C 4.476562 -0.703125 3.628906 -1.351562 2.953125 -2.1875 C 2.273438 -3.019531 1.773438 -4.035156 1.453125 -5.234375 C 1.128906 -6.441406 0.96875 -7.773438 0.96875 -9.234375 L 0.96875 -25.8125 L 5.0625 -25.8125 L 5.0625 -9.203125 C 5.0625 -8.554688 5.109375 -7.882812 5.203125 -7.1875 C 5.296875 -6.5 5.484375 -5.859375 5.765625 -5.265625 C 6.046875 -4.671875 6.460938 -4.1875 7.015625 -3.8125 C 7.578125 -3.4375 8.304688 -3.25 9.203125 -3.25 C 10.085938 -3.25 10.804688 -3.4375 11.359375 -3.8125 C 11.910156 -4.1875 12.335938 -4.660156 12.640625 -5.234375 C 12.941406 -5.816406 13.140625 -6.460938 13.234375 -7.171875 C 13.328125 -7.878906 13.375 -8.554688 13.375 -9.203125 L 13.375 -25.8125 L 17.46875 -25.8125 Z M 17.46875 -9.203125 "/></g></g></g><g fill="#000000" fill-opacity="1"><g transform="translate(1008.804244, 216.02181)"><g><path d="M 19.28125 -12.921875 C 19.28125 -11.191406 19.097656 -9.546875 18.734375 -7.984375 C 18.378906 -6.421875 17.800781 -5.046875 17 -3.859375 C 16.207031 -2.679688 15.179688 -1.742188 13.921875 -1.046875 C 12.660156 -0.347656 11.140625 0 9.359375 0 L 0.96875 0 L 0.96875 -25.8125 L 9.359375 -25.8125 C 11.109375 -25.8125 12.613281 -25.457031 13.875 -24.75 C 15.132812 -24.050781 16.160156 -23.113281 16.953125 -21.9375 C 17.753906 -20.757812 18.34375 -19.394531 18.71875 -17.84375 C 19.09375 -16.289062 19.28125 -14.648438 19.28125 -12.921875 Z M 15.1875 -12.921875 C 15.1875 -15.898438 14.675781 -18.175781 13.65625 -19.75 C 12.644531 -21.332031 11.210938 -22.125 9.359375 -22.125 L 5.0625 -22.125 L 5.0625 -3.671875 L 9.359375 -3.671875 C 11.210938 -3.671875 12.644531 -4.472656 13.65625 -6.078125 C 14.675781 -7.691406 15.1875 -9.972656 15.1875 -12.921875 Z M 15.1875 -12.921875 "/></g></g></g><g fill="#000000" fill-opacity="1"><g transform="translate(1032.128069, 216.02181)"><g><path d="M 17.46875 0 L 0.96875 0 L 0.96875 -25.8125 L 17.46875 -25.8125 L 17.46875 -22.125 L 5.0625 -22.125 L 5.0625 -15 L 14.734375 -15 L 14.734375 -11.296875 L 5.0625 -11.296875 L 5.0625 -3.671875 L 17.46875 -3.671875 Z M 17.46875 0 "/></g></g></g><g fill="#000000" fill-opacity="1"><g transform="translate(1055.451905, 216.02181)"><g><path d="M 17.46875 0 L 12.71875 0 L 5.0625 -18.71875 L 5.0625 0 L 0.96875 0 L 0.96875 -25.8125 L 6.109375 -25.8125 L 13.375 -8.03125 L 13.375 -25.8125 L 17.46875 -25.8125 Z M 17.46875 0 "/></g></g></g><g fill="#000000" fill-opacity="1"><g transform="translate(1078.775719, 216.02181)"><g><path d="M 18.390625 -16.40625 L 14.734375 -16.40625 L 14.734375 -22.125 L 11.25 -22.125 L 11.25 -3.671875 L 15.359375 -3.671875 L 15.359375 0 L 3.09375 0 L 3.09375 -3.671875 L 7.15625 -3.671875 L 7.15625 -22.125 L 3.640625 -22.125 L 3.640625 -16.40625 L 0 -16.40625 L 0 -25.8125 L 18.390625 -25.8125 Z M 18.390625 -16.40625 "/></g></g></g><g fill="#000000" fill-opacity="1"><g transform="translate(1102.099533, 216.02181)"><g><path d="M 17.78125 -7.078125 C 17.78125 -5.890625 17.578125 -4.832031 17.171875 -3.90625 C 16.773438 -2.976562 16.226562 -2.191406 15.53125 -1.546875 C 14.84375 -0.898438 14.019531 -0.40625 13.0625 -0.0625 C 12.101562 0.28125 11.085938 0.453125 10.015625 0.453125 C 8.796875 0.453125 7.695312 0.238281 6.71875 -0.1875 C 5.75 -0.625 4.914062 -1.347656 4.21875 -2.359375 L 4.21875 0 L 0.53125 0 L 0.53125 -8.421875 L 4.21875 -8.421875 C 4.21875 -7.578125 4.363281 -6.832031 4.65625 -6.1875 C 4.957031 -5.539062 5.347656 -4.992188 5.828125 -4.546875 C 6.316406 -4.109375 6.882812 -3.773438 7.53125 -3.546875 C 8.175781 -3.316406 8.863281 -3.203125 9.59375 -3.203125 C 10.820312 -3.203125 11.8125 -3.484375 12.5625 -4.046875 C 13.3125 -4.617188 13.6875 -5.523438 13.6875 -6.765625 C 13.6875 -7.410156 13.570312 -7.960938 13.34375 -8.421875 C 13.113281 -8.890625 12.785156 -9.300781 12.359375 -9.65625 C 11.929688 -10.019531 11.40625 -10.335938 10.78125 -10.609375 C 10.164062 -10.878906 9.460938 -11.164062 8.671875 -11.46875 C 7.734375 -11.789062 6.796875 -12.148438 5.859375 -12.546875 C 4.921875 -12.941406 4.082031 -13.425781 3.34375 -14 C 2.601562 -14.582031 2 -15.296875 1.53125 -16.140625 C 1.070312 -16.992188 0.84375 -18.070312 0.84375 -19.375 C 0.84375 -20.5 1.050781 -21.488281 1.46875 -22.34375 C 1.882812 -23.195312 2.4375 -23.910156 3.125 -24.484375 C 3.820312 -25.066406 4.628906 -25.503906 5.546875 -25.796875 C 6.460938 -26.097656 7.4375 -26.25 8.46875 -26.25 C 9.65625 -26.25 10.671875 -26 11.515625 -25.5 C 12.367188 -25 13.023438 -24.332031 13.484375 -23.5 L 13.484375 -25.8125 L 17.171875 -25.8125 L 17.171875 -17.78125 L 13.484375 -17.78125 C 13.484375 -19.300781 13.082031 -20.484375 12.28125 -21.328125 C 11.488281 -22.179688 10.421875 -22.609375 9.078125 -22.609375 C 7.890625 -22.609375 6.90625 -22.332031 6.125 -21.78125 C 5.34375 -21.226562 4.953125 -20.453125 4.953125 -19.453125 C 4.953125 -18.929688 5.050781 -18.488281 5.25 -18.125 C 5.457031 -17.769531 5.753906 -17.441406 6.140625 -17.140625 C 6.523438 -16.847656 7.015625 -16.570312 7.609375 -16.3125 C 8.203125 -16.050781 8.890625 -15.769531 9.671875 -15.46875 C 10.648438 -15.125 11.617188 -14.734375 12.578125 -14.296875 C 13.546875 -13.867188 14.410156 -13.335938 15.171875 -12.703125 C 15.941406 -12.066406 16.566406 -11.296875 17.046875 -10.390625 C 17.535156 -9.492188 17.78125 -8.390625 17.78125 -7.078125 Z M 17.78125 -7.078125 "/></g></g></g><path stroke-linecap="butt" transform="matrix(0, 0.693404, -0.693404, 0, 820.45757, 124.790158)" fill="none" stroke-linejoin="miter" d="M -0.00157997 2.000648 L 139.150027 2.000648 " stroke="#000000" stroke-width="4" stroke-opacity="1" stroke-miterlimit="4"/></g></g></svg>